<svg xmlns="http://www.w3.org/2000/svg" id="logo-svg" viewBox="0 0 64 64"><style type="text/css">path.class{fill:#fff;stroke:#000;stroke-width:1.5;stroke-miterlimit:10}</style><g><path d="M50.6,28.7l2.5-5.1l-4.2-8.6h3.4l2.5,5.1l2.5-5.1h3.4l-4.2,8.6l4.2,8.6h-3.4L54.9,27l-2.5,5.1l8.5,17.1H54l-3.6-6.8l-13.1,0l-3.6,6.8H23.5v-24l-6.8,6.8L10,25.3v24H3.2V15.1H10l6.8,8.6l6.8-8.6h6.8v25.7l13.6-25.7L50.6,28.7z M43.9,28.7l-3.9,8.6l7.9,0L43.9,28.7z" class="class"/><path d="M47.2,23.6 M33.7,49.3" class="class"/><path d="M43.9,15.1" class="class"/><path d="M54,49.3" class="class"/><path d="M39.5,24.6" class="class"/><path d="M54,48.9" class="class"/><path d="M37.4,14.7" class="class"/></g></svg>