<svg xmlns="http://www.w3.org/2000/svg" id="logo-svg" viewBox="0 0 64 38"><style type="text/css">path.class{fill:#fff;stroke:#000;stroke-width:1.5;stroke-miterlimit:10}</style><g><path d="M50.6,15.7l2.5-5.1l-4.2-8.6h3.4l2.5,5.1l2.5-5.1h3.4l-4.2,8.6l4.2,8.6h-3.4L54.9,14l-2.5,5.1l8.5,17.1H54l-3.6-6.8l-13.1,0l-3.6,6.8H23.5v-24l-6.8,6.8L10,12.3v24H3.2V2.1H10l6.8,8.6l6.8-8.6h6.8v25.7L43.9,2.1L50.6,15.7z M43.9,15.7l-3.9,8.6l7.9,0L43.9,15.7z" class="class"/><path d="M47.2,10.6 M33.7,36.3" class="class"/><path d="M43.9,2.1" class="class"/><path d="M54,36.3" class="class"/><path d="M39.5,11.6" class="class"/><path d="M54,35.9" class="class"/><path d="M37.4,1.7" class="class"/></g></svg>