<svg width="1024" height="1024" viewBox="0 0 1024 1024" xmlns="http://www.w3.org/2000/svg">
	<path fill-rule="evenodd" clip-rule="evenodd" d="M759.608 305.5H845.01L878.152 347.165L911.058 305.5H996.152L926.083 392.265L1000.76 482.14H912.594L877.029 437.802L842.142 481.881L946 718.5H813.556L788.844 657.852H620.578L595.866 718.5H462.27V465.16L363.539 718.5H240.727L141.996 466.335V718.5H24V357.5H216.165L302.518 592.908L388.101 357.5H580.266V452.293L621.873 357.5H787.549L811.7 412.524L827.602 393L759.608 305.5ZM660.785 559.179L704.711 451.377L748.637 559.179H660.785Z" />
</svg>
