<svg width="1024" height="1024" viewBox="0 0 1024 1024" xmlns="http://www.w3.org/2000/svg">
	<path d="M811.9 305V311.451C807.804 311.451 804.936 312.373 803.298 314.216C801.864 316.059 802.172 318.619 804.22 321.896L831.027 362.261L836.168 355.995C842.312 348.418 845.999 341.352 847.228 334.798C848.456 328.245 847.432 322.818 844.156 318.517C840.879 314.216 835.554 311.758 828.181 311.144V305C834.53 305.205 841.596 305.41 849.378 305.614C857.16 305.819 863.714 305.922 869.039 305.922C873.544 305.922 877.436 305.819 880.712 305.614C883.989 305.41 886.959 305.205 889.621 305V311.144C885.116 313.192 880.405 316.366 875.49 320.667C870.78 324.968 865.864 330.19 860.744 336.334L834.207 367.049L884.399 442.626C886.242 445.288 888.495 448.36 891.157 451.842C894.024 455.323 897.096 457.371 900.373 457.986V464.437C896.482 464.232 890.748 464.027 883.17 463.822C875.592 463.413 867.912 463.208 860.13 463.208C851.938 463.208 843.848 463.413 835.861 463.822C827.874 464.027 821.832 464.232 817.736 464.437V457.986C821.832 457.986 824.597 457.064 826.031 455.221C827.669 453.378 827.464 450.818 825.416 447.541L795.212 402.061L792.546 405.454C785.788 414.056 781.999 422.35 781.18 430.338C780.36 438.12 781.999 444.571 786.095 449.691C790.191 454.811 795.823 457.678 802.991 458.293V464.437C798.895 464.232 793.57 464.13 787.016 464.13C780.463 463.925 774.012 463.822 767.663 463.822C761.519 463.618 756.604 463.515 752.917 463.515C748.412 463.515 744.52 463.618 741.244 463.822C739.022 463.822 736.854 463.93 734.739 464.144L816.68 675.429C821.459 687.034 826.579 695.397 832.04 700.517C837.501 705.295 842.451 707.855 846.888 708.197V718.437C834.6 717.754 820.264 717.413 803.88 717.413C787.496 717.072 770.771 716.901 753.704 716.901C736.296 716.901 719.912 717.072 704.552 717.413C689.192 717.413 676.904 717.754 667.688 718.437V708.197C685.096 707.514 696.019 704.613 700.456 699.493C705.235 694.031 704.211 682.597 697.384 665.189L667.057 581.221H563.905L555.048 604.261C553.618 607.978 552.28 611.575 551.032 615.053V664.165C551.032 676.453 551.885 685.669 553.592 691.813C555.64 697.957 559.224 702.053 564.344 704.101C569.464 706.149 577.144 707.514 587.384 708.197V718.437C576.803 717.754 563.32 717.413 546.936 717.413C530.552 717.072 513.827 716.901 496.76 716.901C478.328 716.901 460.92 717.072 444.536 717.413C428.493 717.413 415.523 717.754 405.624 718.437V708.197C417.229 707.514 425.933 706.149 431.736 704.101C437.88 702.053 441.976 697.957 444.024 691.813C446.072 685.669 447.096 676.453 447.096 664.165V402.317L323.704 717.925H315.512L171.128 389.221V618.085C171.128 640.954 171.981 658.533 173.688 670.821C175.736 682.767 180.344 691.471 187.512 696.933C195.021 702.053 206.797 705.807 222.84 708.197V718.437C216.013 717.754 207.139 717.413 196.216 717.413C185.293 717.072 175.053 716.901 165.496 716.901C157.987 716.901 150.307 717.072 142.456 717.413C134.605 717.413 128.12 717.754 123 718.437V708.197C133.581 705.807 141.432 702.223 146.552 697.445C151.672 692.325 155.085 684.303 156.792 673.381C158.499 662.458 159.352 647.44 159.352 628.325V410.213C159.352 397.583 158.499 388.367 156.792 382.565C155.085 376.421 151.501 372.325 146.04 370.277C140.92 367.887 133.24 366.522 123 366.181V355.941C128.12 356.282 134.605 356.623 142.456 356.965C150.307 357.306 157.987 357.477 165.496 357.477C185.293 357.477 204.237 357.306 222.328 356.965C240.419 356.623 256.803 356.282 271.48 355.941L368.167 573.732L452.216 357.477H474.232H496.76C513.827 357.477 530.552 357.306 546.936 356.965C563.32 356.623 576.803 356.282 587.384 355.941V366.181C577.144 366.522 569.293 367.887 563.832 370.277C558.712 372.325 555.299 376.421 553.592 382.565C551.885 388.367 551.032 397.583 551.032 410.213V582.242L639.016 355.941C647.208 356.623 656.083 356.965 665.64 356.965C675.539 356.965 684.584 356.623 692.776 355.941L732.448 458.236C737.728 455.584 742.503 452.326 746.773 448.462C751.279 444.366 756.092 439.246 761.212 433.102L792.108 397.387L745.237 326.811C742.37 322.306 739.708 318.824 737.25 316.366C734.997 313.704 732.335 312.066 729.263 311.451V305C733.768 305.205 740.424 305.512 749.231 305.922C758.037 306.126 766.844 306.229 775.65 306.229C782.818 306.229 789.781 306.126 796.54 305.922C803.298 305.512 808.418 305.205 811.9 305ZM617.088 442.868L567.841 570.981H663.359L617.088 442.868Z" />
</svg>
